<svg id="图层_1" data-name="图层 1" xmlns="http://www.w3.org/2000/svg" viewBox="0 0 141.73 141.73"><defs><style>.cls-1{fill:#00a1e9;}</style></defs><title>未标题-22</title><path class="cls-1" d="M91.32,25.48l-.7-3.31-9.07-.4a38.33,38.33,0,0,0-16.73,3.71Z"/><path class="cls-1" d="M93.18,34.31l-.86-4.12h-35a46.68,46.68,0,0,0-4.55,4.12Z"/><path class="cls-1" d="M66.58,43.18A23.12,23.12,0,0,1,75.2,39H48.65c-1,1.35-2,2.74-2.94,4.15Z"/><path class="cls-1" d="M58.4,52.42a40.61,40.61,0,0,1,3.27-4.53H42.9c-.82,1.5-1.57,3-2.28,4.53Z"/><path class="cls-1" d="M35.18,67.19c-.24.86-.46,1.7-.66,2.5C28.81,87.89,17.46,87.51,14.22,88.56H6.72l-6,17.62H16.2l.89-.22c1-.26,27-5.73,32.92-31.32a65.16,65.16,0,0,1,1.85-7.45Z"/><path class="cls-1" d="M53.48,62.48c.66-1.73,1.42-3.53,2.31-5.35H38.57c-.73,1.83-1.36,3.61-1.94,5.35Z"/><path class="cls-1" d="M81.35,57.3v-.58a2.19,2.19,0,0,0-.3-1,5.07,5.07,0,0,0-.74-1,5.71,5.71,0,0,0-.93-.82,1.65,1.65,0,0,0-.93-.33H69.91L68,55.82V57.3Z"/><rect class="cls-1" x="67.97" y="62.01" width="13.38" height="3.93"/><path class="cls-1" d="M68,70.66V103.1a3,3,0,0,0,.74,1.9,2.1,2.1,0,0,0,1.64.93h9.44c.6-.74.92-1.16,1-1.26a6.11,6.11,0,0,0,.41-1.15,4.89,4.89,0,0,0,.19-.93V70.66Z"/><path class="cls-1" d="M136.4,60.38V57.71l-2.72-1.42H111a17.55,17.55,0,0,0-8.52,2.1,21.14,21.14,0,0,0-3,2Z"/><path class="cls-1" d="M95.59,64.47a25.46,25.46,0,0,0-2.52,4.24h24.5v0h17.2l1.62-1.28v-3Z"/><path class="cls-1" d="M102.05,77.36c.06-.2.11-.39.18-.6a17.31,17.31,0,0,1,1.59-3.34H91.34a31.15,31.15,0,0,0-.81,3.93Z"/><path class="cls-1" d="M122.54,95.65a4.11,4.11,0,0,1-.19-.39.62.62,0,0,1-.16-.28.48.48,0,0,0-.1-.21l-.3-.55-3.09-.87H111A7.2,7.2,0,0,1,107,92.16a10.22,10.22,0,0,1-3-3,15.24,15.24,0,0,1-1.85-4.09,16.31,16.31,0,0,1-.57-3H90.26a26.82,26.82,0,0,0,1.6,8.74,26.13,26.13,0,0,0,4.51,7.89,22.1,22.1,0,0,0,6.87,5.51,18.68,18.68,0,0,0,8.72,2.06h9.23l1.56-1.64V96.11A3.37,3.37,0,0,0,122.54,95.65Z"/><polygon class="cls-1" points="137.93 88.66 137.93 88.66 135.39 84.55 123.96 84.55 123.96 87.13 123.97 88.66 137.93 88.66"/><polygon class="cls-1" points="123.96 92.76 124.02 106.13 137.74 106.13 137.8 92.76 123.96 92.76"/></svg>